G04 Layer_Color=8421504*
%FSLAX44Y44*%
%MOMM*%
G71*
G01*
G75*
%ADD10R,1.3208X0.5588*%
%ADD11R,1.3208X0.5080*%
%ADD12R,5.0000X0.8000*%
%ADD13R,1.2000X1.6000*%
%ADD14R,1.6000X1.8000*%
%ADD15R,2.0000X2.0000*%
%ADD16R,1.6800X3.1500*%
%ADD17R,1.8000X5.5000*%
%ADD18R,1.1000X1.1000*%
%ADD19R,2.2000X2.8000*%
%ADD20R,1.0000X1.0000*%
%ADD21R,0.6500X1.8500*%
%ADD22R,0.6000X2.2000*%
D10*
X825246Y555498D02*
D03*
Y536702D02*
D03*
X561340Y382270D02*
D03*
Y363474D02*
D03*
D11*
X847090Y546100D02*
D03*
X583184Y372872D02*
D03*
D12*
X447760Y560070D02*
D03*
X537760D02*
D03*
D13*
X654050Y396240D02*
D03*
X634050D02*
D03*
Y369570D02*
D03*
X654050D02*
D03*
X859630Y477520D02*
D03*
X839630D02*
D03*
X834710Y509270D02*
D03*
X854710D02*
D03*
X730570Y520700D02*
D03*
X750570D02*
D03*
X731680Y548640D02*
D03*
X751680D02*
D03*
X730570Y447040D02*
D03*
X750570D02*
D03*
X457200Y473710D02*
D03*
X477200D02*
D03*
X457360Y501650D02*
D03*
X477360D02*
D03*
X458630Y387350D02*
D03*
X478630D02*
D03*
X461010Y415290D02*
D03*
X481010D02*
D03*
X732000Y600710D02*
D03*
X752000D02*
D03*
X730250Y574040D02*
D03*
X750250D02*
D03*
X922020Y331470D02*
D03*
X902020D02*
D03*
D14*
X626080Y336550D02*
D03*
X654080D02*
D03*
X927130Y384810D02*
D03*
X899130D02*
D03*
D15*
X834710Y440690D02*
D03*
X874710D02*
D03*
D16*
X863370Y594360D02*
D03*
X815570D02*
D03*
X503960Y344170D02*
D03*
X456160D02*
D03*
D17*
X853990Y360680D02*
D03*
X808990D02*
D03*
D18*
X730680Y471170D02*
D03*
X752680D02*
D03*
X730680Y495300D02*
D03*
X752680D02*
D03*
X921590Y359410D02*
D03*
X899590D02*
D03*
D19*
X639720Y447040D02*
D03*
X594720D02*
D03*
D20*
X452900Y445770D02*
D03*
X486900D02*
D03*
X925340Y477520D02*
D03*
X959340D02*
D03*
X925340Y533400D02*
D03*
X959340D02*
D03*
D21*
X585470Y589040D02*
D03*
X598170D02*
D03*
X610870D02*
D03*
X623570D02*
D03*
X636270D02*
D03*
X648970D02*
D03*
X661670D02*
D03*
X674370D02*
D03*
X687070D02*
D03*
X699770D02*
D03*
Y495540D02*
D03*
X687070D02*
D03*
X674370D02*
D03*
X661670D02*
D03*
X648970D02*
D03*
X636270D02*
D03*
X623570D02*
D03*
X610870D02*
D03*
X598170D02*
D03*
X585470D02*
D03*
D22*
X769620Y386679D02*
D03*
X756920D02*
D03*
X731520D02*
D03*
X769620Y334679D02*
D03*
X756920D02*
D03*
X731520D02*
D03*
X744220Y386679D02*
D03*
Y334679D02*
D03*
M02*
