M48
;Layer_Color=9474304
;FILE_FORMAT=4:4
METRIC,LZ
T7F00S00C5.0800
%
G90
G05
T07
G00X01050258Y00282447
M15
G01X01055105Y00283947
G01X01059557Y0028638
G01X01063437Y0028965
G01X01066589Y00293625
G01X01068888Y00298148
G01X01070243Y00303037
G01X0107061Y0030734
G01X0107061Y0064643
G01X01070103Y00651478
G01X01068603Y00656325
G01X0106617Y00660777
G01X010629Y00664657
G01X01058925Y00667809
G01X01054402Y00670108
G01X01049512Y00671463
G01X0104521Y0067183
G01X0032512Y0067183
G01X00320072Y00671323
G01X00315225Y00669823
G01X00310773Y0066739
G01X00306893Y0066412
G01X00303741Y00660145
G01X00301442Y00655622
G01X00300087Y00650733
G01X0029972Y0064643
G01X0029972Y0030734
G01X00300227Y00302292
G01X00301727Y00297445
G01X0030416Y00292993
G01X0030743Y00289113
G01X00311405Y00285961
G01X00315928Y00283662
G01X00320817Y00282307
G01X0032512Y0028194
G01X0104521Y0028194
G01X01050258Y00282447
M16
M17
M30
