G04 Layer_Color=65535*
%FSLAX44Y44*%
%MOMM*%
G71*
G01*
G75*
%ADD10C,0.8890*%
%ADD11C,0.5080*%
%ADD12C,0.3810*%
%ADD13C,0.1524*%
%ADD14C,0.2000*%
%ADD15C,0.0000*%
%ADD16C,0.1270*%
%ADD17C,0.2500*%
%ADD18C,0.3500*%
%ADD19C,0.1778*%
%ADD20C,0.2540*%
%ADD21R,0.5000X3.0000*%
%ADD22R,0.5000X4.0000*%
G36*
X349600Y523260D02*
X342100D01*
Y530760D01*
X349600D01*
Y523260D01*
D02*
G37*
G36*
X363100Y537010D02*
X356100Y532010D01*
Y542010D01*
X363100Y537010D01*
D02*
G37*
D10*
X306140D02*
G03*
X306140Y537010I-2540J0D01*
G01*
D11*
X343100Y549510D02*
G03*
X343100Y549510I-2000J0D01*
G01*
X308600Y537010D02*
X356100D01*
D12*
X328600Y549510D02*
G03*
X324072Y547634I0J-6403D01*
G01*
X335073Y528885D02*
G03*
X339600Y527010I4528J4528D01*
G01*
X328600Y549510D02*
X341100D01*
X339600Y527010D02*
X342100D01*
X314072Y537634D02*
X324072Y547634D01*
X327573Y536385D02*
X335073Y528885D01*
D13*
X835176Y558537D02*
G03*
X839216Y561366I1030J2829D01*
G01*
X571270Y385309D02*
G03*
X575310Y388138I1030J2829D01*
G01*
X843280Y551942D02*
Y561340D01*
X833374Y530860D02*
X843280D01*
Y540258D01*
X839216Y561340D02*
X843280D01*
X833374D02*
X839216D01*
X579374Y378714D02*
Y388112D01*
X569468Y357632D02*
X579374D01*
Y367030D01*
X575310Y388112D02*
X579374D01*
X569468D02*
X575310D01*
D14*
X663198Y385406D02*
G03*
X663151Y407155I-19148J10834D01*
G01*
X624902Y407074D02*
G03*
X624949Y385325I19148J-10834D01*
G01*
X624902Y380404D02*
G03*
X624949Y358655I19148J-10834D01*
G01*
X663198Y358736D02*
G03*
X663151Y380485I-19148J10834D01*
G01*
X868778Y466686D02*
G03*
X868731Y488435I-19148J10834D01*
G01*
X830482Y488354D02*
G03*
X830529Y466605I19148J-10834D01*
G01*
X829470Y594360D02*
G03*
X839470Y594360I5000J2666D01*
G01*
X849470D02*
G03*
X839470Y594360I-5000J-2666D01*
G01*
X825562Y520104D02*
G03*
X825609Y498355I19148J-10834D01*
G01*
X863858Y498436D02*
G03*
X863811Y520185I-19148J10834D01*
G01*
X801490Y395680D02*
G03*
X796490Y390680I0J-5000D01*
G01*
X866490Y390680D02*
G03*
X861490Y395680I-5000J0D01*
G01*
X796490Y330680D02*
G03*
X801490Y325680I5000J0D01*
G01*
X861490Y325680D02*
G03*
X866490Y330680I0J5000D01*
G01*
X721422Y531534D02*
G03*
X721469Y509785I19148J-10834D01*
G01*
X759718Y509866D02*
G03*
X759671Y531615I-19148J10834D01*
G01*
X722532Y559474D02*
G03*
X722579Y537725I19148J-10834D01*
G01*
X760828Y537806D02*
G03*
X760781Y559555I-19148J10834D01*
G01*
X449482Y398184D02*
G03*
X449529Y376435I19148J-10834D01*
G01*
X487778Y376516D02*
G03*
X487731Y398265I-19148J10834D01*
G01*
X451862Y426124D02*
G03*
X451909Y404375I19148J-10834D01*
G01*
X490158Y404456D02*
G03*
X490111Y426205I-19148J10834D01*
G01*
X931168Y320636D02*
G03*
X931121Y342385I-19148J10834D01*
G01*
X892872Y342304D02*
G03*
X892919Y320555I19148J-10834D01*
G01*
X950000Y620000D02*
G03*
X960000Y620000I5000J2666D01*
G01*
X970000D02*
G03*
X960000Y620000I-5000J-2666D01*
G01*
X556760Y535070D02*
Y552070D01*
X428760Y535070D02*
X556760D01*
X428760D02*
Y552070D01*
X556760Y568070D02*
Y585070D01*
X428760D02*
X556760D01*
X428760Y568070D02*
Y585070D01*
X625050Y407240D02*
X663050D01*
X625050Y385240D02*
X663050D01*
X625050Y358570D02*
X663050D01*
X625050Y380570D02*
X663050D01*
X665080Y324550D02*
Y348550D01*
X615080D02*
X665080D01*
X615080Y324550D02*
Y348550D01*
Y324550D02*
X665080D01*
X830630Y488520D02*
X868630D01*
X830630Y466520D02*
X868630D01*
X814470Y614360D02*
X864470D01*
X814470Y574360D02*
X864470D01*
X825710Y498270D02*
X863710D01*
X825710Y520270D02*
X863710D01*
X970840Y548790D02*
Y558790D01*
X1033340D01*
Y398790D02*
Y558790D01*
X970840Y398790D02*
X1033340D01*
X970840Y548790D02*
X975840D01*
X970840Y408790D02*
X975840D01*
X970840Y398790D02*
Y408790D01*
X975840Y486290D02*
Y548790D01*
Y408790D02*
Y471290D01*
X970840D02*
X975840D01*
X970840D02*
Y486290D01*
X975840D01*
X1033340Y456290D02*
X1040840D01*
Y501290D01*
X1033340D02*
X1040840D01*
X801490Y395680D02*
X861490D01*
X866490Y330680D02*
Y390680D01*
X796490Y330680D02*
Y390680D01*
X801490Y325680D02*
X861490D01*
X721570Y509700D02*
X759570D01*
X721570Y531700D02*
X759570D01*
X722680Y537640D02*
X760680D01*
X722680Y559640D02*
X760680D01*
X721570Y436040D02*
X759570D01*
X721570D02*
Y458040D01*
X759570D01*
Y436040D02*
Y458040D01*
X888130Y372810D02*
X938130D01*
X888130D02*
Y396810D01*
X938130D01*
Y372810D02*
Y396810D01*
X761680Y462170D02*
Y480170D01*
X731680Y462170D02*
X761680D01*
X731680Y480170D02*
X761680D01*
Y486300D02*
Y504300D01*
X731680Y486300D02*
X761680D01*
X731680Y504300D02*
X761680D01*
X448200Y462710D02*
X486200D01*
X448200D02*
Y484710D01*
X486200D01*
Y462710D02*
Y484710D01*
X448360Y490650D02*
X486360D01*
X448360D02*
Y512650D01*
X486360D01*
Y490650D02*
Y512650D01*
X449630Y376350D02*
X487630D01*
X449630Y398350D02*
X487630D01*
X452010Y404290D02*
X490010D01*
X452010Y426290D02*
X490010D01*
X472400Y440770D02*
Y450770D01*
X467400Y445770D02*
X472400Y440770D01*
X467400Y445770D02*
X472400Y450770D01*
X467400Y440770D02*
Y450770D01*
X461900Y436770D02*
Y454770D01*
X452400D02*
X487400D01*
X452400Y436770D02*
X487400D01*
X452400D02*
Y438270D01*
Y453270D02*
Y454770D01*
X487400Y436770D02*
Y438270D01*
Y453270D02*
Y454770D01*
X723000Y589710D02*
X761000D01*
X723000D02*
Y611710D01*
X761000D01*
Y589710D02*
Y611710D01*
X721250Y563040D02*
X759250D01*
X721250D02*
Y585040D01*
X759250D01*
Y563040D02*
Y585040D01*
X890590Y350410D02*
Y368410D01*
X920590D01*
X890590Y350410D02*
X920590D01*
X893020Y342470D02*
X931020D01*
X893020Y320470D02*
X931020D01*
X944840Y472520D02*
Y482520D01*
X939840Y477520D02*
X944840Y472520D01*
X939840Y477520D02*
X944840Y482520D01*
X939840Y472520D02*
Y482520D01*
X934340Y468520D02*
Y486520D01*
X924840D02*
X959840D01*
X924840Y468520D02*
X959840D01*
X924840D02*
Y470020D01*
Y485020D02*
Y486520D01*
X959840Y468520D02*
Y470020D01*
Y485020D02*
Y486520D01*
X944840Y528400D02*
Y538400D01*
X939840Y533400D02*
X944840Y528400D01*
X939840Y533400D02*
X944840Y538400D01*
X939840Y528400D02*
Y538400D01*
X934340Y524400D02*
Y542400D01*
X924840D02*
X959840D01*
X924840Y524400D02*
X959840D01*
X924840D02*
Y525900D01*
Y540900D02*
Y542400D01*
X959840Y524400D02*
Y525900D01*
Y540900D02*
Y542400D01*
X578720Y486290D02*
Y504790D01*
X578620Y508290D02*
X706620D01*
Y576290D01*
X578620D02*
X706620D01*
X578620Y508290D02*
Y576290D01*
X935000Y640000D02*
X985000D01*
X935000Y600000D02*
X985000D01*
D15*
X733765Y351154D02*
G03*
X733765Y351154I-2245J0D01*
G01*
D16*
X356100Y532010D02*
X363100Y537010D01*
X356100Y542010D02*
X363100Y537010D01*
X356100Y532010D02*
Y542010D01*
X342100Y530760D02*
X349600D01*
X342100Y523260D02*
Y530760D01*
Y523260D02*
X349600D01*
Y530760D01*
D17*
X376100Y609510D02*
X411100D01*
X251100D02*
X331100D01*
X251100Y464510D02*
X331100D01*
X376100D02*
X411100D01*
Y512010D01*
Y562010D02*
Y609510D01*
X251100Y464510D02*
Y609510D01*
X819710Y425690D02*
X889710D01*
X819710Y455690D02*
X889710D01*
Y425690D02*
Y430690D01*
Y450690D02*
Y455690D01*
X819710Y450690D02*
Y455690D01*
Y425690D02*
Y430690D01*
X859710Y433190D02*
Y448190D01*
X852210Y440690D02*
X859710Y433190D01*
X852210Y440690D02*
X859710Y448190D01*
X279370Y430920D02*
X424370D01*
X279370Y340920D02*
Y430920D01*
Y340920D02*
X361870D01*
X409370D02*
X424370D01*
Y363420D01*
Y408420D02*
Y430920D01*
X314370Y340920D02*
Y430920D01*
X579720Y467040D02*
X654720D01*
X579720Y427040D02*
X654720D01*
X610220Y457040D02*
X620220Y447040D01*
X610220Y437040D02*
Y457040D01*
Y437040D02*
X620220Y447040D01*
X579720Y459540D02*
Y467040D01*
Y427040D02*
Y434540D01*
X654720Y427040D02*
Y434540D01*
Y459540D02*
Y467040D01*
D18*
X721680Y480170D02*
X731680D01*
X721680Y462170D02*
X731680D01*
X721680D02*
Y480170D01*
Y504300D02*
X731680D01*
X721680Y486300D02*
X731680D01*
X721680D02*
Y504300D01*
X920590Y350410D02*
X930590D01*
X920590Y368410D02*
X930590D01*
Y350410D02*
Y368410D01*
D19*
X726570Y341679D02*
Y379679D01*
X774570Y341679D02*
Y379679D01*
D20*
X1006257Y622735D02*
X996100D01*
Y615117D01*
X1001179D01*
X996100D01*
Y607500D01*
X1011335Y622735D02*
Y610039D01*
X1013874Y607500D01*
X1018953D01*
X1021492Y610039D01*
Y622735D01*
X1036727Y607500D02*
X1026570D01*
X1036727Y617657D01*
Y620196D01*
X1034188Y622735D01*
X1029109D01*
X1026570Y620196D01*
X383170Y637335D02*
X393327Y622100D01*
Y637335D02*
X383170Y622100D01*
X398405D02*
X403484D01*
X400944D01*
Y637335D01*
X398405Y634796D01*
X866648Y556255D02*
Y541020D01*
X874266D01*
X876805Y543559D01*
Y553716D01*
X874266Y556255D01*
X866648D01*
X881883Y541020D02*
Y551177D01*
X886961Y556255D01*
X892040Y551177D01*
Y541020D01*
Y548638D01*
X881883D01*
X907275Y541020D02*
X897118D01*
X907275Y551177D01*
Y553716D01*
X904736Y556255D01*
X899657D01*
X897118Y553716D01*
X556133Y411856D02*
Y401699D01*
X561211Y396621D01*
X566290Y401699D01*
Y411856D01*
X581525Y409317D02*
X578986Y411856D01*
X573907D01*
X571368Y409317D01*
Y406778D01*
X573907Y404239D01*
X578986D01*
X581525Y401699D01*
Y399160D01*
X578986Y396621D01*
X573907D01*
X571368Y399160D01*
X586603Y396621D02*
X591682D01*
X589142D01*
Y411856D01*
X586603Y409317D01*
X942340Y325120D02*
Y340355D01*
X949958D01*
X952497Y337816D01*
Y332738D01*
X949958Y330198D01*
X942340D01*
X947418D02*
X952497Y325120D01*
X957575Y337816D02*
X960114Y340355D01*
X965193D01*
X967732Y337816D01*
Y335277D01*
X965193Y332738D01*
X967732Y330198D01*
Y327659D01*
X965193Y325120D01*
X960114D01*
X957575Y327659D01*
Y330198D01*
X960114Y332738D01*
X957575Y335277D01*
Y337816D01*
X960114Y332738D02*
X965193D01*
X920496Y510281D02*
Y500124D01*
X925574Y495046D01*
X930653Y500124D01*
Y510281D01*
X935731D02*
Y495046D01*
X943349D01*
X945888Y497585D01*
Y507742D01*
X943349Y510281D01*
X935731D01*
X961123D02*
X950966D01*
Y502663D01*
X956044Y505203D01*
X958584D01*
X961123Y502663D01*
Y497585D01*
X958584Y495046D01*
X953505D01*
X950966Y497585D01*
X920496Y566161D02*
Y556004D01*
X925574Y550926D01*
X930653Y556004D01*
Y566161D01*
X935731D02*
Y550926D01*
X943349D01*
X945888Y553465D01*
Y563622D01*
X943349Y566161D01*
X935731D01*
X958584Y550926D02*
Y566161D01*
X950966Y558544D01*
X961123D01*
X674690Y388620D02*
Y403855D01*
X682308D01*
X684847Y401316D01*
Y396237D01*
X682308Y393698D01*
X674690D01*
X679768D02*
X684847Y388620D01*
X700082Y403855D02*
X689925D01*
Y396237D01*
X695004Y398777D01*
X697543D01*
X700082Y396237D01*
Y391159D01*
X697543Y388620D01*
X692464D01*
X689925Y391159D01*
X469900Y610865D02*
X480057D01*
Y608326D01*
X469900Y598169D01*
Y595630D01*
X480057D01*
X495292Y598169D02*
Y608326D01*
X492753Y610865D01*
X487674D01*
X485135Y608326D01*
Y598169D01*
X487674Y595630D01*
X492753D01*
X490213Y600708D02*
X495292Y595630D01*
X492753D02*
X495292Y598169D01*
X500370Y595630D02*
X505448D01*
X502909D01*
Y610865D01*
X500370Y608326D01*
X985520Y584195D02*
X995677Y568960D01*
Y584195D02*
X985520Y568960D01*
X1000755Y581656D02*
X1003294Y584195D01*
X1008373D01*
X1010912Y581656D01*
Y579117D01*
X1008373Y576577D01*
X1005833D01*
X1008373D01*
X1010912Y574038D01*
Y571499D01*
X1008373Y568960D01*
X1003294D01*
X1000755Y571499D01*
X941070Y368295D02*
Y353060D01*
Y360677D01*
X951227D01*
Y368295D01*
Y353060D01*
X956305Y368295D02*
Y353060D01*
X966462D01*
X971540Y365756D02*
X974079Y368295D01*
X979158D01*
X981697Y365756D01*
Y363217D01*
X979158Y360677D01*
X976618D01*
X979158D01*
X981697Y358138D01*
Y355599D01*
X979158Y353060D01*
X974079D01*
X971540Y355599D01*
X769620Y478785D02*
Y463550D01*
Y471167D01*
X779777D01*
Y478785D01*
Y463550D01*
X784855Y478785D02*
Y463550D01*
X795012D01*
X810247D02*
X800090D01*
X810247Y473707D01*
Y476246D01*
X807708Y478785D01*
X802629D01*
X800090Y476246D01*
X768350Y501645D02*
Y486410D01*
Y494027D01*
X778507D01*
Y501645D01*
Y486410D01*
X783585Y501645D02*
Y486410D01*
X793742D01*
X798820D02*
X803898D01*
X801359D01*
Y501645D01*
X798820Y499106D01*
X897887Y601975D02*
X887730D01*
Y594357D01*
X892808D01*
X887730D01*
Y586740D01*
X902965Y601975D02*
Y589279D01*
X905504Y586740D01*
X910583D01*
X913122Y589279D01*
Y601975D01*
X918200Y586740D02*
X923279D01*
X920739D01*
Y601975D01*
X918200Y599436D01*
X578358Y623819D02*
Y608584D01*
X585975D01*
X588515Y611123D01*
Y621280D01*
X585975Y623819D01*
X578358D01*
X593593D02*
Y608584D01*
X601211D01*
X603750Y611123D01*
Y621280D01*
X601211Y623819D01*
X593593D01*
X608828Y608584D02*
X613907D01*
X611367D01*
Y623819D01*
X608828Y621280D01*
X396240Y454655D02*
X406397Y439420D01*
Y454655D02*
X396240Y439420D01*
X421632D02*
X411475D01*
X421632Y449577D01*
Y452116D01*
X419093Y454655D01*
X414014D01*
X411475Y452116D01*
X898840Y448305D02*
Y438148D01*
X903918Y433070D01*
X908997Y438148D01*
Y448305D01*
X914075D02*
Y433070D01*
X921693D01*
X924232Y435609D01*
Y445766D01*
X921693Y448305D01*
X914075D01*
X929310Y445766D02*
X931849Y448305D01*
X936928D01*
X939467Y445766D01*
Y443227D01*
X936928Y440687D01*
X934389D01*
X936928D01*
X939467Y438148D01*
Y435609D01*
X936928Y433070D01*
X931849D01*
X929310Y435609D01*
X661670Y457195D02*
Y447038D01*
X666748Y441960D01*
X671827Y447038D01*
Y457195D01*
X676905D02*
Y441960D01*
X684523D01*
X687062Y444499D01*
Y454656D01*
X684523Y457195D01*
X676905D01*
X702297Y441960D02*
X692140D01*
X702297Y452117D01*
Y454656D01*
X699758Y457195D01*
X694679D01*
X692140Y454656D01*
X728218Y421635D02*
Y406400D01*
X735835D01*
X738375Y408939D01*
Y419096D01*
X735835Y421635D01*
X728218D01*
X743453Y406400D02*
Y416557D01*
X748531Y421635D01*
X753610Y416557D01*
Y406400D01*
Y414017D01*
X743453D01*
X758688Y406400D02*
X763766D01*
X761227D01*
Y421635D01*
X758688Y419096D01*
X953767Y391156D02*
X951227Y393695D01*
X946149D01*
X943610Y391156D01*
Y380999D01*
X946149Y378460D01*
X951227D01*
X953767Y380999D01*
X958845Y393695D02*
X969002D01*
Y391156D01*
X958845Y380999D01*
Y378460D01*
X887727Y483866D02*
X885188Y486405D01*
X880109D01*
X877570Y483866D01*
Y473709D01*
X880109Y471170D01*
X885188D01*
X887727Y473709D01*
X902962Y486405D02*
X892805D01*
Y478787D01*
X897883Y481327D01*
X900423D01*
X902962Y478787D01*
Y473709D01*
X900423Y471170D01*
X895344D01*
X892805Y473709D01*
X683257Y342896D02*
X680717Y345435D01*
X675639D01*
X673100Y342896D01*
Y332739D01*
X675639Y330200D01*
X680717D01*
X683257Y332739D01*
X688335Y342896D02*
X690874Y345435D01*
X695953D01*
X698492Y342896D01*
Y340357D01*
X695953Y337817D01*
X693413D01*
X695953D01*
X698492Y335278D01*
Y332739D01*
X695953Y330200D01*
X690874D01*
X688335Y332739D01*
X778667Y607056D02*
X776128Y609595D01*
X771049D01*
X768510Y607056D01*
Y596899D01*
X771049Y594360D01*
X776128D01*
X778667Y596899D01*
X793902Y609595D02*
X788823Y607056D01*
X783745Y601978D01*
Y596899D01*
X786284Y594360D01*
X791363D01*
X793902Y596899D01*
Y599438D01*
X791363Y601978D01*
X783745D01*
X774537Y581656D02*
X771998Y584195D01*
X766919D01*
X764380Y581656D01*
Y571499D01*
X766919Y568960D01*
X771998D01*
X774537Y571499D01*
X779615Y581656D02*
X782154Y584195D01*
X787233D01*
X789772Y581656D01*
Y579117D01*
X787233Y576577D01*
X789772Y574038D01*
Y571499D01*
X787233Y568960D01*
X782154D01*
X779615Y571499D01*
Y574038D01*
X782154Y576577D01*
X779615Y579117D01*
Y581656D01*
X782154Y576577D02*
X787233D01*
X777397Y453386D02*
X774858Y455925D01*
X769779D01*
X767240Y453386D01*
Y443229D01*
X769779Y440690D01*
X774858D01*
X777397Y443229D01*
X790093Y440690D02*
Y455925D01*
X782475Y448307D01*
X792632D01*
X504187Y507996D02*
X501647Y510535D01*
X496569D01*
X494030Y507996D01*
Y497839D01*
X496569Y495300D01*
X501647D01*
X504187Y497839D01*
X509265Y495300D02*
X514343D01*
X511804D01*
Y510535D01*
X509265Y507996D01*
X502757Y478786D02*
X500218Y481325D01*
X495139D01*
X492600Y478786D01*
Y468629D01*
X495139Y466090D01*
X500218D01*
X502757Y468629D01*
X517992Y466090D02*
X507835D01*
X517992Y476247D01*
Y478786D01*
X515453Y481325D01*
X510374D01*
X507835Y478786D01*
X818790Y419095D02*
Y403860D01*
X828947D01*
X834025D02*
X839103D01*
X836564D01*
Y419095D01*
X834025Y416556D01*
X498950Y407670D02*
Y422905D01*
X506567D01*
X509107Y420366D01*
Y415288D01*
X506567Y412748D01*
X498950D01*
X504028D02*
X509107Y407670D01*
X514185D02*
X519263D01*
X516724D01*
Y422905D01*
X514185Y420366D01*
X495460Y378460D02*
Y393695D01*
X503078D01*
X505617Y391156D01*
Y386077D01*
X503078Y383538D01*
X495460D01*
X500538D02*
X505617Y378460D01*
X520852D02*
X510695D01*
X520852Y388617D01*
Y391156D01*
X518313Y393695D01*
X513234D01*
X510695Y391156D01*
X674370Y360680D02*
Y375915D01*
X681988D01*
X684527Y373376D01*
Y368298D01*
X681988Y365758D01*
X674370D01*
X679448D02*
X684527Y360680D01*
X689605Y373376D02*
X692144Y375915D01*
X697223D01*
X699762Y373376D01*
Y370837D01*
X697223Y368298D01*
X694683D01*
X697223D01*
X699762Y365758D01*
Y363219D01*
X697223Y360680D01*
X692144D01*
X689605Y363219D01*
X769620Y542290D02*
Y557525D01*
X777237D01*
X779777Y554986D01*
Y549907D01*
X777237Y547368D01*
X769620D01*
X774698D02*
X779777Y542290D01*
X792473D02*
Y557525D01*
X784855Y549907D01*
X795012D01*
X768350Y513080D02*
Y528315D01*
X775967D01*
X778507Y525776D01*
Y520698D01*
X775967Y518158D01*
X768350D01*
X773428D02*
X778507Y513080D01*
X793742Y528315D02*
X788663Y525776D01*
X783585Y520698D01*
Y515619D01*
X786124Y513080D01*
X791203D01*
X793742Y515619D01*
Y518158D01*
X791203Y520698D01*
X783585D01*
X873920Y502920D02*
Y518155D01*
X881538D01*
X884077Y515616D01*
Y510537D01*
X881538Y507998D01*
X873920D01*
X878998D02*
X884077Y502920D01*
X889155Y518155D02*
X899312D01*
Y515616D01*
X889155Y505459D01*
Y502920D01*
X499110Y453385D02*
Y443228D01*
X504188Y438150D01*
X509267Y443228D01*
Y453385D01*
X514345D02*
Y438150D01*
X521963D01*
X524502Y440689D01*
Y450846D01*
X521963Y453385D01*
X514345D01*
X529580Y438150D02*
X534659D01*
X532119D01*
Y453385D01*
X529580Y450846D01*
X325120Y307340D02*
Y646430D01*
Y307340D02*
X1045210D01*
X325120Y646430D02*
X1045210D01*
Y307340D02*
Y646430D01*
D21*
X849710Y440690D02*
D03*
D22*
X622213Y447040D02*
D03*
M02*
