G04 Layer_Color=16711935*
%FSLAX44Y44*%
%MOMM*%
G71*
G01*
G75*
%ADD10C,0.2540*%
%ADD11C,4.2032*%
%ADD12C,1.8032*%
%ADD13R,1.8032X1.8032*%
%ADD14C,3.7032*%
%ADD15R,1.7032X1.7032*%
%ADD16C,1.7032*%
%ADD17C,1.4732*%
D10*
X325120Y307340D02*
Y646430D01*
Y307340D02*
X1045210D01*
X325120Y646430D02*
X1045210D01*
Y307340D02*
Y646430D01*
D11*
X353900Y476810D02*
D03*
Y597210D02*
D03*
X415370Y385920D02*
D03*
D12*
X401000Y549510D02*
D03*
X381000D02*
D03*
Y524510D02*
D03*
D13*
X401000D02*
D03*
D14*
X385370Y339920D02*
D03*
X357370Y385920D02*
D03*
D15*
X1005840Y529590D02*
D03*
D16*
Y478790D02*
D03*
Y504190D02*
D03*
Y453390D02*
D03*
Y427990D02*
D03*
D17*
X623570Y513842D02*
D03*
X834898Y524510D02*
D03*
X486156Y372364D02*
D03*
X707644Y336296D02*
D03*
X477266Y576326D02*
D03*
X790000Y410000D02*
D03*
X692658Y607060D02*
D03*
X699770Y542544D02*
D03*
X759460Y366522D02*
D03*
X947674Y469646D02*
D03*
X741172Y354584D02*
D03*
X868426Y325882D02*
D03*
X863370Y531186D02*
D03*
X572500Y588010D02*
D03*
X416450Y445000D02*
D03*
X612500Y357500D02*
D03*
M02*
