M48
;Layer_Color=9474304
;FILE_FORMAT=4:4
METRIC,LZ
;TYPE=PLATED
T1F00S00C0.7112
T2F00S00C0.9000
T3F00S00C1.0000
T4F00S00C2.4000
T5F00S00C2.5000
T6F00S00C3.2000
;TYPE=NON_PLATED
%
T01
X00488188Y00373126
X0071374Y00363982
X00753364Y00358648
X00791718Y00369824
X0082296Y00463296
X00834898Y00525272
X0098679Y0047879
X00710946Y00500126
X0071247Y0053721
X0068707Y0060706
X006223Y0061087
X0057404Y0058928
X0042291Y0051816
X0043942Y0045847
X0071374Y00432816
T02
X00401Y0052451
Y0054951
X00381
Y0052451
T03
X0100584Y0042799
Y0045339
Y0047879
Y0050419
Y0052959
T04
X003539Y0047681
Y0059721
T05
X0038537Y0033992
X0035737Y0038592
T06
X0041537Y0038592
M30
